<svg width="26" height="26" viewBox="0 0 26 26" fill="none" xmlns="http://www.w3.org/2000/svg">
<path d="M22.3742 25.1895H22.2148C3.79291 24.1301 1.17729 8.58633 0.811664 3.84258C0.782203 3.47375 0.825809 3.10273 0.939984 2.75078C1.05416 2.39883 1.23666 2.07286 1.47702 1.79156C1.71739 1.51027 2.0109 1.27916 2.34074 1.11149C2.67057 0.94382 3.03025 0.84288 3.39916 0.814454H8.56479C8.94031 0.81409 9.30729 0.926494 9.61819 1.13711C9.9291 1.34772 10.1696 1.64683 10.3085 1.9957L11.7335 5.50195C11.8707 5.84278 11.9048 6.2164 11.8315 6.57641C11.7581 6.93643 11.5806 7.26696 11.321 7.52695L9.32416 9.54258C9.63608 11.3152 10.485 12.9491 11.7559 14.2235C13.0269 15.4978 14.6587 16.351 16.4304 16.6676L18.4648 14.652C18.7287 14.3952 19.0623 14.2219 19.4241 14.1535C19.7859 14.0852 20.1598 14.1248 20.4992 14.2676L24.0335 15.6832C24.3771 15.8265 24.6703 16.0689 24.8757 16.3795C25.081 16.69 25.1893 17.0547 25.1867 17.427V22.377C25.1867 23.1229 24.8903 23.8382 24.3629 24.3657C23.8355 24.8931 23.1201 25.1895 22.3742 25.1895ZM3.62416 2.68945C3.37552 2.68945 3.13707 2.78823 2.96125 2.96404C2.78544 3.13986 2.68666 3.37831 2.68666 3.62695V3.70195C3.11791 9.25195 5.88354 22.377 22.3179 23.3145C22.4411 23.3221 22.5645 23.3053 22.6812 23.2651C22.7979 23.2249 22.9054 23.162 22.9978 23.0802C23.0901 22.9983 23.1653 22.899 23.2192 22.788C23.2731 22.677 23.3045 22.5564 23.3117 22.4332V17.427L19.7773 16.0113L17.0867 18.6832L16.6367 18.627C8.48041 17.6051 7.37416 9.44883 7.37416 9.36445L7.31791 8.91445L9.98041 6.22383L8.57416 2.68945H3.62416Z" fill="white"/>
</svg>
