<svg width="125" height="85" viewBox="0 0 125 85" fill="none" xmlns="http://www.w3.org/2000/svg">
<path d="M5.75268 84.6163C4.73967 84.6163 3.7572 84.4821 2.80523 84.2139C1.86546 83.9334 1.10879 83.5738 0.535156 83.1349L1.54205 80.9036C2.09126 81.306 2.7442 81.629 3.5009 81.8729C4.25761 82.1169 5.01428 82.2387 5.77098 82.2387C6.61311 82.2387 7.23555 82.1169 7.63831 81.8729C8.04106 81.6169 8.24244 81.2815 8.24244 80.867C8.24244 80.5623 8.12051 80.3121 7.8763 80.1172C7.64453 79.9098 7.33917 79.7452 6.96094 79.6234C6.5948 79.5016 6.09439 79.3673 5.45976 79.221C4.48337 78.9895 3.68398 78.7576 3.06153 78.526C2.43909 78.2945 1.90207 77.9225 1.45051 77.4104C1.01114 76.8983 0.791454 76.2154 0.791454 75.362C0.791454 74.6184 0.992833 73.9475 1.39559 73.3502C1.79834 72.7405 2.40248 72.2591 3.20799 71.9054C4.02569 71.5517 5.02039 71.375 6.19204 71.375C7.00964 71.375 7.80929 71.4727 8.59027 71.6676C9.37125 71.8626 10.0548 72.1431 10.6407 72.5089L9.72531 74.7585C8.54158 74.088 7.35748 73.7526 6.17374 73.7526C5.34381 73.7526 4.72748 73.8868 4.32472 74.1549C3.93416 74.4231 3.7389 74.7768 3.7389 75.2157C3.7389 75.6546 3.9647 75.9839 4.41626 76.2033C4.88005 76.4107 5.5818 76.6177 6.52157 76.8251C7.49807 77.0567 8.29736 77.2886 8.9198 77.5201C9.54224 77.7517 10.0731 78.1175 10.5125 78.6175C10.964 79.1175 11.1899 79.7942 11.1899 80.6476C11.1899 81.3791 10.9823 82.0496 10.5674 82.6594C10.1647 83.2567 9.55433 83.7322 8.73673 84.0859C7.91914 84.4396 6.92433 84.6163 5.75268 84.6163ZM22.5714 81.6535H16.6216L15.4866 84.3968H12.4476L18.1594 71.5945H21.0885L26.8186 84.3968H23.7064L22.5714 81.6535ZM21.6377 79.4039L19.6056 74.5024L17.5736 79.4039H21.6377ZM32.0292 73.9721V77.3555H37.9607V79.7331H32.0292V84.3968H29.0635V71.5945H38.7479V73.9721H32.0292ZM51.5936 82.0192V84.3968H41.6712V71.5945H51.3556V73.9721H44.6186V76.752H50.5684V79.0564H44.6186V82.0192H51.5936ZM66.6219 71.5945V84.3968H63.6562V79.1479H57.8345V84.3968H54.8688V71.5945H57.8345V76.6423H63.6562V71.5945H66.6219ZM76.775 84.6163C75.4448 84.6163 74.2428 84.3299 73.1685 83.7567C72.1067 83.1835 71.2708 82.3971 70.6604 81.3974C70.0625 80.3853 69.7634 79.2514 69.7634 77.9956C69.7634 76.7399 70.0625 75.6118 70.6604 74.6122C71.2708 73.6001 72.1067 72.8078 73.1685 72.2346C74.2428 71.6614 75.4448 71.375 76.775 71.375C78.1056 71.375 79.3014 71.6614 80.3632 72.2346C81.425 72.8078 82.2613 73.6001 82.8713 74.6122C83.4816 75.6118 83.7866 76.7399 83.7866 77.9956C83.7866 79.2514 83.4816 80.3853 82.8713 81.3974C82.2613 82.3971 81.425 83.1835 80.3632 83.7567C79.3014 84.3299 78.1056 84.6163 76.775 84.6163ZM76.775 82.0924C77.5318 82.0924 78.2154 81.9216 78.8254 81.5803C79.4358 81.2266 79.9118 80.739 80.2534 80.1172C80.6074 79.4953 80.7843 78.7883 80.7843 77.9956C80.7843 77.203 80.6074 76.4959 80.2534 75.8741C79.9118 75.2523 79.4358 74.7706 78.8254 74.4293C78.2154 74.0756 77.5318 73.8989 76.775 73.8989C76.0186 73.8989 75.335 74.0756 74.7246 74.4293C74.1146 74.7706 73.6324 75.2523 73.2784 75.8741C72.9368 76.4959 72.7658 77.203 72.7658 77.9956C72.7658 78.7883 72.9368 79.4953 73.2784 80.1172C73.6324 80.739 74.1146 81.2266 74.7246 81.5803C75.335 81.9216 76.0186 82.0924 76.775 82.0924ZM92.6246 84.6163C90.7938 84.6163 89.3659 84.1104 88.3407 83.0983C87.3276 82.0862 86.8212 80.6413 86.8212 78.7638V71.5945H89.787V78.6541C89.787 80.9464 90.7389 82.0924 92.6429 82.0924C93.5703 82.0924 94.2784 81.8181 94.7665 81.2694C95.2546 80.7087 95.4988 79.8366 95.4988 78.6541V71.5945H98.4279V78.7638C98.4279 80.6413 97.9153 82.0862 96.8901 83.0983C95.877 84.1104 94.4553 84.6163 92.6246 84.6163ZM106.484 84.6163C105.472 84.6163 104.489 84.4821 103.537 84.2139C102.598 83.9334 101.841 83.5738 101.267 83.1349L102.274 80.9036C102.823 81.306 103.476 81.629 104.233 81.8729C104.99 82.1169 105.746 82.2387 106.503 82.2387C107.345 82.2387 107.967 82.1169 108.37 81.8729C108.773 81.6169 108.974 81.2815 108.974 80.867C108.974 80.5623 108.852 80.3121 108.608 80.1172C108.376 79.9098 108.071 79.7452 107.693 79.6234C107.327 79.5016 106.826 79.3673 106.192 79.221C105.215 78.9895 104.416 78.7576 103.793 78.526C103.171 78.2945 102.634 77.9225 102.182 77.4104C101.743 76.8983 101.523 76.2154 101.523 75.362C101.523 74.6184 101.725 73.9475 102.127 73.3502C102.53 72.7405 103.134 72.2591 103.94 71.9054C104.758 71.5517 105.752 71.375 106.924 71.375C107.742 71.375 108.541 71.4727 109.322 71.6676C110.103 71.8626 110.787 72.1431 111.372 72.5089L110.457 74.7585C109.273 74.088 108.09 73.7526 106.906 73.7526C106.076 73.7526 105.459 73.8868 105.057 74.1549C104.666 74.4231 104.471 74.7768 104.471 75.2157C104.471 75.6546 104.697 75.9839 105.148 76.2033C105.612 76.4107 106.314 76.6177 107.253 76.8251C108.23 77.0567 109.029 77.2886 109.652 77.5201C110.274 77.7517 110.805 78.1175 111.244 78.6175C111.696 79.1175 111.922 79.7942 111.922 80.6476C111.922 81.3791 111.714 82.0496 111.299 82.6594C110.896 83.2567 110.286 83.7322 109.469 84.0859C108.651 84.4396 107.656 84.6163 106.484 84.6163ZM124.786 82.0192V84.3968H114.864V71.5945H124.548V73.9721H117.811V76.752H123.761V79.0564H117.811V82.0192H124.786Z" fill="white"/>
<path fill-rule="evenodd" clip-rule="evenodd" d="M19.0625 44.5989L63.0757 0.628906L63.0804 0.633609L63.0807 0.633289L82 19.481V8.00119H89V26.4545L107.218 44.6033L101.522 50.2935L63.084 12.0011L24.7583 50.2891L19.0625 44.5989ZM56.4102 36.1145H69.9574V59.5245H56.4102V36.1145Z" fill="white"/>
</svg>
