<svg width="36" height="36" viewBox="0 0 36 36" fill="none" xmlns="http://www.w3.org/2000/svg">
<path fill-rule="evenodd" clip-rule="evenodd" d="M35.6226 22.2418C35.3938 22.1509 35.1326 22.2077 34.9626 22.3857L32.4001 25.0793V9.08014H32.4031L34.8481 6.44013C35.073 6.19706 35.0582 5.8172 34.8148 5.59226L34.8143 5.59171L33.9343 4.77268L35.1571 3.45267C35.3817 3.20933 35.3666 2.82975 35.1233 2.60508L32.4833 0.16007C32.2402 -0.0648749 31.8606 -0.050318 31.6357 0.193029L27.3697 4.79932H6.60004C6.59811 3.14313 5.25613 1.80115 3.59995 1.79923H3.00009C1.3439 1.80115 0.00192261 3.14313 0 4.79932V30.5993C0 30.9306 0.268616 31.1992 0.600128 31.1992H9.6828L8.42267 32.7123C8.21091 32.9672 8.24551 33.3454 8.50012 33.5571L11.2668 35.8607C11.5214 36.0727 11.8998 36.0381 12.1119 35.7835L12.1122 35.7832L15.1831 32.0938C15.3951 31.8383 15.5316 31.5282 15.5767 31.1992H26.571L22.965 34.9859C22.7368 35.226 22.7464 35.6058 22.9864 35.8341C23.0979 35.9401 23.246 35.9994 23.4001 35.9991H35.3999C35.7314 35.9991 36 35.7305 36 35.3993V22.7993C36 22.5538 35.8506 22.333 35.6226 22.2418ZM33.5599 6.05918L32.4001 7.31382V6.43134L33.1199 5.65131L33.5599 6.05918ZM31.2001 5.95234V5.96085L26.1258 11.445L24.3636 9.81458L30.4763 3.2085L32.2386 4.83887L31.2072 5.95234H31.2001ZM24.9733 12.0124L23.5931 12.415L23.8878 11.0074L24.9733 12.0124ZM32.1067 1.44712L33.8681 3.07667L33.0529 3.95914L31.2913 2.32795L32.1067 1.44712ZM3.00009 2.99921H3.59995C4.59421 2.99921 5.40005 3.80506 5.40005 4.79932V27.6149C4.8837 27.2177 4.25116 27.0013 3.59995 26.9991H3.00009C2.3486 27.0013 1.71634 27.2177 1.19998 27.6149V4.79932C1.19998 3.80506 2.00583 2.99921 3.00009 2.99921ZM3.00009 28.1991H3.59995C4.59421 28.1991 5.40005 29.0052 5.40005 29.9992H1.19998C1.19998 29.0052 2.00583 28.1991 3.00009 28.1991ZM14.2614 31.3264L13.8774 31.7872L12.0331 30.2519L12.4165 29.7905C12.6285 29.5359 13.0067 29.5013 13.2613 29.7133L13.2616 29.7134L13.2619 29.7136L14.1839 30.4793C14.4388 30.6911 14.4737 31.0693 14.2619 31.3242L14.2614 31.3247V31.3264ZM11.5741 34.5544L9.72949 33.0191L11.2651 31.1739L13.1094 32.7095L11.5741 34.5544ZM15.3246 29.9992C15.2249 29.833 15.0988 29.6845 14.9513 29.5589L14.0293 28.7915C13.2652 28.1554 12.1303 28.259 11.4942 29.0231L10.6801 29.9992H6.60004V5.9993H26.2595L23.0754 9.44022C23.0298 9.49158 22.9936 9.55091 22.9686 9.6149C22.9614 9.63221 22.9559 9.64841 22.9499 9.66654C22.9477 9.67341 22.945 9.68032 22.9422 9.68731C22.9378 9.6985 22.9334 9.70992 22.9307 9.72175L22.2144 13.1465C22.1468 13.4708 22.355 13.7886 22.6794 13.8562C22.7758 13.8762 22.8755 13.8724 22.9697 13.8449L26.3298 12.8658C26.3382 12.8631 26.3459 12.8593 26.3534 12.8555C26.36 12.8522 26.3666 12.849 26.3735 12.8465C26.3886 12.841 26.4043 12.8333 26.4205 12.8254C26.4878 12.7949 26.5487 12.7518 26.6004 12.6988L31.2001 7.72773V26.3391L27.7141 29.9992H15.3246ZM34.8 34.7991H24.7997L34.8 24.2992V34.7991ZM28.2459 33.2289C28.3387 33.453 28.5576 33.5991 28.8004 33.5991H33.0002C33.3317 33.5991 33.6003 33.3305 33.6003 32.9993V28.7992C33.6003 28.4677 33.3314 28.1993 33.0002 28.1993C32.8412 28.1993 32.6884 28.2625 32.5761 28.3751L28.376 32.5749C28.2044 32.7466 28.153 33.0048 28.2459 33.2289ZM32.4003 30.2475V32.3991H30.2487L32.4003 30.2475ZM22.2001 22.7994H26.3999C26.7314 22.7994 27 23.068 27 23.3992C27 23.7307 26.7314 23.9994 26.4001 23.9994H9.60013C9.26862 23.9994 9 23.7307 9 23.3992C9 23.068 9.26862 22.7994 9.60013 22.7994H13.7999V16.1993C13.8005 16.0403 13.8634 15.8876 13.9752 15.7744L17.5751 12.1745C17.8094 11.9402 18.1892 11.9402 18.4235 12.1745L22.0235 15.7744C22.1358 15.8873 22.1992 16.04 22.2001 16.1993V22.7994ZM20.1517 15.5992L18 13.4475L15.8483 15.5992H20.1517ZM21.0001 22.7994V16.7992H14.9999V22.7994H21.0001ZM17.3994 9.59937H18.5997V10.7993H17.3994V9.59937ZM18.5997 25.1992H17.3994V26.3992H18.5997V25.1992Z" fill="#1C57C9"/>
</svg>
