<svg width="36" height="36" viewBox="0 0 36 36" fill="none" xmlns="http://www.w3.org/2000/svg">
<path fill-rule="evenodd" clip-rule="evenodd" d="M33.8906 5.625H32.2031V2.10938C32.2031 0.946266 31.2569 0 30.0938 0H5.90625C4.74314 0 3.79688 0.946266 3.79688 2.10938V5.625H2.10938C0.946266 5.625 0 6.57127 0 7.73438V27.9842C0 29.1473 0.946266 30.0936 2.10938 30.0936H14.4844V31.781H13.1467C11.9836 31.781 11.0374 32.7272 11.0374 33.8903V35.2969C11.0374 35.6852 11.3522 36 11.7405 36H24.2596C24.6479 36 24.9627 35.6852 24.9627 35.2969V33.8903C24.9627 32.7272 24.0164 31.781 22.8533 31.781H21.5156V30.0936H33.8906C35.0537 30.0936 36 29.1473 36 27.9842V7.73438C36 6.57127 35.0537 5.625 33.8906 5.625ZM33.8906 7.03125C34.2783 7.03125 34.5938 7.34667 34.5938 7.73438V23.9061H32.2031V7.03125H33.8906ZM5.90625 1.40625H30.0938C30.4815 1.40625 30.7969 1.72167 30.7969 2.10938V5.625H5.20312V2.10938C5.20312 1.72167 5.51855 1.40625 5.90625 1.40625ZM2.10938 7.03125H3.79688V12.304C3.79688 12.6923 4.11166 13.0071 4.5 13.0071C4.88834 13.0071 5.20312 12.6923 5.20312 12.304V7.03125H30.7969V23.9061H27.2109V21.589C27.2109 21.2007 26.8961 20.8859 26.5078 20.8859H25.593C25.4322 20.3323 25.2115 19.8 24.9332 19.2942L25.5805 18.6471C25.855 18.3725 25.855 17.9273 25.5805 17.6527L23.4458 15.518C23.1712 15.2435 22.726 15.2435 22.4513 15.518L21.8042 16.1652C21.2985 15.8869 20.7662 15.6663 20.2125 15.5055V14.5907C20.2125 14.2024 19.8977 13.8876 19.5094 13.8876H16.4905C16.1021 13.8876 15.7873 14.2024 15.7873 14.5907V15.5055C15.2337 15.6663 14.7014 15.8869 14.1957 16.1652L13.5485 15.518C13.2739 15.2435 12.8287 15.2435 12.5541 15.518L10.4194 17.6527C10.1448 17.9272 10.1448 18.3724 10.4194 18.6471L11.0666 19.2942C10.7883 19.7999 10.5677 20.3323 10.4069 20.8859H9.49219C9.10385 20.8859 8.78906 21.2007 8.78906 21.589V23.9061H5.20312V18.6321C5.20312 18.2438 4.88834 17.929 4.5 17.929C4.11166 17.929 3.79688 18.2438 3.79688 18.6321V23.9061H1.40625V7.73438C1.40625 7.34667 1.72167 7.03125 2.10938 7.03125ZM12.4485 18.6872L11.9111 18.1498L13.0514 17.0095L13.5888 17.5469C13.8234 17.7814 14.1901 17.8201 14.4686 17.6396C15.1339 17.2082 15.8636 16.9058 16.6372 16.7408C16.9618 16.6717 17.1937 16.385 17.1937 16.0532V15.2937H18.8064V16.0532C18.8064 16.385 19.0384 16.6717 19.3629 16.7408C20.1365 16.9058 20.8661 17.2081 21.5316 17.6396C21.81 17.8201 22.1767 17.7815 22.4113 17.5469L22.9487 17.0095L24.0891 18.1498L23.5517 18.6872C23.3171 18.9219 23.2784 19.2885 23.4589 19.567C23.8904 20.2324 24.1928 20.9621 24.3577 21.7356C24.4269 22.0601 24.7136 22.2922 25.0454 22.2922H25.8047V23.9061H21.4212C21.4838 23.6424 21.516 23.3715 21.516 23.0985C21.516 21.1597 19.9387 19.5825 18 19.5825C16.0613 19.5825 14.484 21.1598 14.484 23.0985C14.484 23.3715 14.5162 23.6424 14.5788 23.9061H10.1953V22.2922H10.9548C11.2866 22.2922 11.5732 22.0602 11.6424 21.7356C11.8074 20.962 12.1098 20.2324 12.5412 19.567C12.7218 19.2886 12.6831 18.9219 12.4485 18.6872ZM15.8902 23.0985C15.8902 21.9352 16.8366 20.9887 18 20.9887C19.1634 20.9887 20.1098 21.9352 20.1098 23.0985C20.1098 23.3762 20.0536 23.6505 19.947 23.9061H16.053C15.9464 23.6505 15.8902 23.3762 15.8902 23.0985ZM23.5564 33.8903V34.5938H12.4436V33.8903C12.4436 33.5026 12.759 33.1872 13.1467 33.1872H22.8533C23.241 33.1872 23.5564 33.5026 23.5564 33.8903ZM15.8906 31.781V30.0936H20.1094V31.781H15.8906ZM2.10938 28.6874C1.72167 28.6874 1.40625 28.3719 1.40625 27.9842V25.3124H34.5938V27.9842C34.5938 28.3719 34.2783 28.6874 33.8906 28.6874H2.10938ZM20.1094 4.21875H27.7031C28.0915 4.21875 28.4062 3.90396 28.4062 3.51562C28.4062 3.12729 28.0915 2.8125 27.7031 2.8125H20.1094C19.721 2.8125 19.4062 3.12729 19.4062 3.51562C19.4062 3.90396 19.721 4.21875 20.1094 4.21875ZM11.8877 4.01273C11.757 4.14352 11.5755 4.21875 11.3906 4.21875C11.2057 4.21875 11.0243 4.14352 10.8935 4.01273C10.7627 3.88195 10.6875 3.70055 10.6875 3.51562C10.6875 3.3307 10.7627 3.1493 10.8935 3.01852C11.0243 2.88773 11.2057 2.8125 11.3906 2.8125C11.5755 2.8125 11.757 2.88773 11.8877 3.01852C12.0185 3.1493 12.0938 3.3307 12.0938 3.51562C12.0938 3.70055 12.0185 3.88195 11.8877 4.01273ZM8.29688 4.21875C8.4818 4.21875 8.6632 4.14352 8.79398 4.01273C8.92477 3.88195 9 3.70055 9 3.51562C9 3.3307 8.92477 3.1493 8.79398 3.01852C8.6632 2.88773 8.4818 2.8125 8.29688 2.8125C8.11195 2.8125 7.93055 2.88773 7.79977 3.01852C7.66898 3.1493 7.59375 3.3307 7.59375 3.51562C7.59375 3.70055 7.66898 3.88195 7.79977 4.01273C7.93055 4.14352 8.11195 4.21875 8.29688 4.21875ZM14.9815 4.01273C14.8507 4.14352 14.6693 4.21875 14.4844 4.21875C14.2995 4.21875 14.118 4.14352 13.9873 4.01273C13.8565 3.88195 13.7812 3.70055 13.7812 3.51562C13.7812 3.3307 13.8565 3.1493 13.9873 3.01852C14.118 2.88773 14.2995 2.8125 14.4844 2.8125C14.6693 2.8125 14.8507 2.88773 14.9815 3.01852C15.1123 3.1493 15.1875 3.3307 15.1875 3.51562C15.1875 3.70055 15.1123 3.88195 14.9815 4.01273ZM7.875 10.4061H9.5483C9.93663 10.4061 10.2514 10.0913 10.2514 9.703C10.2514 9.31467 9.93663 8.99988 9.5483 8.99988H7.875C7.48666 8.99988 7.17188 9.31467 7.17188 9.703C7.17188 10.0913 7.48666 10.4061 7.875 10.4061ZM19.0924 10.4061H12.6421C12.2538 10.4061 11.939 10.0913 11.939 9.703C11.939 9.31467 12.2538 8.99988 12.6421 8.99988H19.0924C19.4808 8.99988 19.7955 9.31467 19.7955 9.703C19.7955 10.0913 19.4808 10.4061 19.0924 10.4061ZM7.875 13.781H11.9531C12.3415 13.781 12.6562 13.4662 12.6562 13.0779C12.6562 12.6895 12.3415 12.3748 11.9531 12.3748H7.875C7.48666 12.3748 7.17188 12.6895 7.17188 13.0779C7.17188 13.4662 7.48666 13.781 7.875 13.781ZM28.1249 10.4061H22.186C21.7977 10.4061 21.4829 10.0913 21.4829 9.703C21.4829 9.31467 21.7977 8.99988 22.186 8.99988H28.1249C28.5132 8.99988 28.828 9.31467 28.828 9.703C28.828 10.0913 28.5132 10.4061 28.1249 10.4061ZM28.1251 12.3748H23.313C22.9247 12.3748 22.6099 12.6895 22.6099 13.0779C22.6099 13.4662 22.9247 13.781 23.313 13.781H28.1251C28.5134 13.781 28.8282 13.4662 28.8282 13.0779C28.8282 12.6895 28.5134 12.3748 28.1251 12.3748ZM4.99711 15.9651C4.86633 16.0959 4.68492 16.1711 4.5 16.1711C4.31508 16.1711 4.13367 16.0959 4.00289 15.9651C3.87211 15.8343 3.79688 15.6529 3.79688 15.468C3.79688 15.2831 3.87211 15.1017 4.00289 14.9709C4.13367 14.8401 4.31508 14.7649 4.5 14.7649C4.68492 14.7649 4.86633 14.8401 4.99711 14.9709C5.12789 15.1017 5.20312 15.2831 5.20312 15.468C5.20312 15.6529 5.12789 15.8343 4.99711 15.9651Z" fill="#1C57C9"/>
</svg>
