<svg width="36" height="36" viewBox="0 0 36 36" fill="none" xmlns="http://www.w3.org/2000/svg">
<path fill-rule="evenodd" clip-rule="evenodd" d="M35.8651 21.7806L35.8693 21.7889L35.8731 21.7963C35.9569 22.0089 36 22.2352 36 22.4634V35.2194C36 35.5509 35.7314 35.8195 35.3999 35.8195H0.60013C0.268617 35.8195 0 35.5509 0 35.2194V22.4634C-0.00054785 22.0336 0.153261 21.6178 0.433412 21.2917L3.38434 17.8492C3.72684 17.4501 4.22617 17.2202 4.75214 17.2194H7.19989V10.0195C7.20401 6.37615 10.1566 3.42357 13.7999 3.41945H26.1793L26.9091 1.02938C27.0865 0.460286 27.6523 0.105702 28.2415 0.194142L29.5845 0.403431C30.1734 0.497639 30.6052 1.00823 30.5999 1.60451L30.5681 4.12835C32.7947 5.24785 34.1999 7.52724 34.1999 10.0195V19.6973L35.5677 21.2928C35.6907 21.4395 35.791 21.604 35.8651 21.7806ZM24.0551 17.925L24.9197 21.4195L27.9525 21.4192C28.3673 20.3714 28.2511 19.2016 28.1223 17.9686L28.1132 17.8813C27.966 16.5355 27.7993 15.0065 28.4867 13.5703L28.0739 13.5282H28.0717L25.2971 13.097C25.4965 14.6357 24.8919 16.0102 24.3072 17.3394L24.307 17.34C24.2218 17.5347 24.1381 17.73 24.0551 17.925ZM11.4 24.4195V22.0196H6.60004V24.4195C6.60114 25.4133 7.40643 26.2183 8.39987 26.2194H9.60013C10.5936 26.2183 11.3989 25.4133 11.4 24.4195ZM29.2508 17.2194H30.5999V10.0195C30.6027 9.25072 30.3066 8.51107 29.7746 7.95598L29.3055 9.49187L28.8454 12.4565C29.1437 12.5535 29.3934 12.7617 29.5425 13.0377C29.7186 13.3629 29.7287 13.7526 29.57 14.0866C29.178 15.082 29.0676 16.1658 29.2508 17.2194ZM27.6633 12.2494L28.0313 9.87777L27.7748 9.83767L26.8404 9.6921L26.4727 12.0649L27.6633 12.2494ZM25.2831 11.9042L25.7426 8.94091L25.7671 7.0194H13.7999C12.144 7.02132 10.802 8.3633 10.8001 10.0195V17.2194H16.4614L15.0353 11.4535C14.8771 10.8091 15.2713 10.1582 15.9156 9.99999L20.5741 8.8489C20.8754 8.77034 21.1959 8.81594 21.4637 8.97496C21.7428 9.13784 21.9449 9.40563 22.0248 9.71874L23.578 15.9961C23.9919 15.1388 24.1705 14.1872 24.0958 13.2382C24.045 12.8724 24.1718 12.5043 24.4372 12.2472C24.6643 12.0281 24.9673 11.905 25.2831 11.9042ZM17.4284 21.1308L16.758 18.4194H15.1046L17.4284 21.1308ZM20.5425 21.2154C20.5573 21.2824 20.5604 21.3513 20.5516 21.4195H23.6835L20.8619 10.0137L16.1999 11.1659L16.92 14.0767L18.0868 13.7883C18.2958 13.734 18.518 13.7963 18.6685 13.9515C18.8188 14.1067 18.8742 14.3305 18.8133 14.5379C18.7526 14.7453 18.585 14.904 18.3746 14.9532L17.2084 15.2421L17.4966 16.4069L18.663 16.118C18.983 16.043 19.3038 16.2391 19.3826 16.5583C19.4615 16.8772 19.2692 17.2002 18.9511 17.2828L17.7844 17.5718L18.0722 18.7369L19.2393 18.4477C19.4477 18.3952 19.6686 18.4581 19.8177 18.6127C19.9671 18.7676 20.0223 18.9904 19.9624 19.1969C19.9023 19.4032 19.7364 19.5619 19.5277 19.6128L18.3604 19.9017L18.6485 21.0665L19.816 20.7776C19.9704 20.7391 20.1338 20.7638 20.2701 20.846C20.4063 20.9281 20.5043 21.061 20.5425 21.2154ZM31.2481 18.4194H29.3736C29.5115 19.4205 29.4585 20.4384 29.2176 21.4195H34.0955L31.7043 18.63C31.5895 18.4979 31.4234 18.4213 31.2481 18.4194ZM32.9999 18.2974V10.0195C32.9988 8.18285 32.0628 6.4731 30.5162 5.48269C30.5132 5.49623 30.5117 5.51009 30.5103 5.52392C30.5085 5.54151 30.5067 5.55904 30.5016 5.57579L30.1588 6.69777C31.1968 7.48632 31.8043 8.71624 31.7999 10.0195V17.3216C32.115 17.418 32.3968 17.6001 32.6146 17.8475L32.9999 18.2974ZM29.4 1.58941L28.0569 1.38012L26.9948 4.85756L26.975 6.41405L26.9761 6.41954L26.975 6.42559L26.9486 8.49376L27.7844 8.62477L28.2917 8.7036L29.3541 5.22588V5.22396L29.4 1.58941ZM13.7999 4.61943C10.8191 4.62273 8.40344 7.03862 8.39987 10.0195V20.8196H9.60013V10.0195C9.6026 7.70082 11.4815 5.82216 13.7999 5.81942H25.7824L25.7948 4.84273C25.7992 4.76748 25.8107 4.69249 25.8297 4.61943H13.7999ZM1.34363 22.0737C1.25052 22.1822 1.19971 22.3206 1.19998 22.4634V34.6195H16.8V22.4634C16.8 22.3865 16.7855 22.3104 16.7574 22.2388C16.7303 22.1759 16.6937 22.1174 16.649 22.0652L13.7043 18.63C13.5895 18.4979 13.4234 18.4213 13.2481 18.4194H10.8001V20.8196H11.4C12.0624 20.8201 12.5994 21.3571 12.5999 22.0196V24.4195C12.598 26.0755 11.256 27.4174 9.60013 27.4194H8.39987C6.74396 27.4174 5.40198 26.0755 5.40006 24.4195V22.0196C5.40061 21.3571 5.93756 20.8201 6.60004 20.8196H7.19989V18.4194H4.75214C4.57608 18.4213 4.40936 18.4985 4.29428 18.6314L1.34363 22.0737ZM18 22.6194V34.6195H34.8V22.6194H18ZM18.3691 12.2454C18.4053 12.0053 18.5825 11.8109 18.8181 11.7524C19.1398 11.6727 19.4649 11.8688 19.5446 12.1904C19.6031 12.4261 19.5138 12.6736 19.3186 12.8178C19.1233 12.9617 18.8604 12.974 18.6525 12.8488C18.4446 12.7233 18.3328 12.4851 18.3691 12.2454ZM21.0003 23.8193H19.8003C19.4688 23.8193 19.2002 24.088 19.2002 24.4195C19.2002 24.7507 19.4688 25.0193 19.8003 25.0193H21.0003C21.3315 25.0193 21.6002 24.7507 21.6002 24.4195C21.6002 24.088 21.3315 23.8193 21.0003 23.8193ZM23.3999 23.8193H32.9998C33.3313 23.8193 33.5999 24.088 33.5999 24.4195C33.5999 24.7507 33.3313 25.0193 32.9998 25.0193H23.3999C23.0684 25.0193 22.7998 24.7507 22.7998 24.4195C22.7998 24.088 23.0684 23.8193 23.3999 23.8193Z" fill="#1C57C9"/>
</svg>
