<svg width="36" height="36" viewBox="0 0 36 36" fill="none" xmlns="http://www.w3.org/2000/svg">
<path fill-rule="evenodd" clip-rule="evenodd" d="M22.8669 0.657021C22.5923 0.382591 22.1471 0.382521 21.8725 0.657021L20.8783 1.65124C20.6037 1.92581 20.6037 2.37103 20.8783 2.64567C21.0156 2.78299 21.1956 2.85161 21.3755 2.85161C21.5554 2.85161 21.7354 2.78292 21.8727 2.64567L22.8669 1.65145C23.1415 1.37688 23.1415 0.931661 22.8669 0.657021ZM27.8385 0.65708C28.1134 0.382861 28.5585 0.382861 28.8334 0.65708C29.1077 0.932002 29.1077 1.37708 28.8334 1.6513C28.5585 1.92622 28.1134 1.92622 27.8385 1.6513C27.5643 1.37708 27.5643 0.932002 27.8385 0.65708ZM33.8051 1.65146C33.5302 1.37725 33.0851 1.37725 32.8102 1.65146C32.5359 1.92639 32.5359 2.37146 32.8102 2.64568C33.0851 2.92061 33.5302 2.92061 33.8051 2.64568C34.0794 2.37146 34.0794 1.92639 33.8051 1.65146ZM35.7937 5.629C35.5195 5.35478 35.0737 5.35478 34.7995 5.629C34.5245 5.90393 34.5245 6.349 34.7995 6.62322C35.0737 6.89814 35.5195 6.89814 35.7937 6.62322C36.0686 6.349 36.0686 5.90393 35.7937 5.629ZM4.21719 31.3316C3.94227 31.0574 3.49719 31.0574 3.22227 31.3316C2.94805 31.6065 2.94805 32.0516 3.22227 32.3265C3.49719 32.6007 3.94227 32.6007 4.21719 32.3265C4.49134 32.0516 4.49134 31.6065 4.21719 31.3316ZM8.93954 25.5224C9.21074 25.2444 9.65589 25.239 9.93383 25.5101C10.2116 25.7814 10.2172 26.2266 9.94599 26.5044L6.2117 30.3315C6.07396 30.4728 5.89128 30.5437 5.7084 30.5437C5.53135 30.5437 5.35417 30.4772 5.21741 30.3438C4.93953 30.0725 4.93405 29.6274 5.20525 29.3495L8.93954 25.5224ZM32.8105 16.5674L30.3304 14.0874L30.3192 14.0762L27.3467 11.1036L27.3363 11.0932L24.3639 8.1209L24.3537 8.11064L21.3805 5.13748L21.3704 5.12735L18.8894 2.64637C18.7576 2.51454 18.5787 2.44043 18.3922 2.44043C18.2058 2.44043 18.0269 2.51454 17.8951 2.64637L9.94067 10.6005L8.9454 11.5952C7.57515 12.9663 7.57522 15.1967 8.94554 16.567L10.9348 18.5561C11.0675 18.6889 11.1406 18.8654 11.1406 19.0531C11.1406 19.2408 11.0675 19.4174 10.9348 19.5501L9.95382 20.531L1.43617 28.1593L1.43518 28.1602C1.36304 28.224 1.29695 28.2858 1.23367 28.349C-0.411221 29.9939 -0.411221 32.6704 1.23367 34.3153C2.02925 35.1108 3.08865 35.549 4.21675 35.549C5.34477 35.549 6.40424 35.1108 7.19968 34.3154C7.26402 34.2511 7.32737 34.1834 7.39339 34.1085L7.39382 34.1079L7.3948 34.1069L14.9289 25.4999L15.9066 24.5221C16.1807 24.248 16.6266 24.2481 16.9008 24.5221L18.8897 26.5103C19.5537 27.1747 20.4365 27.5407 21.3755 27.5407C22.3144 27.5407 23.1972 27.1747 23.8609 26.5106L24.8561 25.5163L32.8104 17.5618C33.085 17.2873 33.085 16.842 32.8105 16.5674ZM6.33681 33.1806C6.29117 33.2322 6.24828 33.2782 6.20553 33.3208C5.67552 33.8508 4.9693 34.1426 4.21682 34.1426C3.46433 34.1426 2.75811 33.8508 2.22817 33.3208C1.13158 32.2242 1.13158 30.44 2.22803 29.3436C2.27169 29.3 2.31817 29.2566 2.37013 29.2107L2.37217 29.2087L2.37449 29.2068L10.4112 22.0093L13.453 25.0511L6.33681 33.1806ZM22.8666 25.5164C22.4683 25.915 21.9387 26.1345 21.3755 26.1345C20.8123 26.1345 20.2828 25.915 19.8842 25.5161L17.8951 23.5277C17.0728 22.7054 15.7347 22.7055 14.9123 23.5277L14.4153 24.0247L11.4321 21.0416L11.9291 20.5446C12.3275 20.1462 12.5469 19.6165 12.5469 19.0532C12.5469 18.4898 12.3274 17.9602 11.9291 17.5618L9.93997 15.5726C9.11774 14.7505 9.11781 13.4121 9.93976 12.5896L10.4375 12.0922L23.3643 25.019L22.8666 25.5164ZM24.3589 24.0248L11.4321 11.0979L18.3921 4.13791L19.8839 5.62973L16.4037 9.10943C16.129 9.38393 16.129 9.82915 16.4036 10.1038C16.5409 10.2411 16.7208 10.3098 16.9008 10.3098C17.0808 10.3098 17.2607 10.2411 17.3979 10.1039L20.8783 6.62409L22.8673 8.61309L19.387 12.0928C19.1124 12.3673 19.1124 12.8125 19.3869 13.0871C19.5243 13.2245 19.7042 13.2932 19.8842 13.2932C20.0641 13.2932 20.2441 13.2245 20.3813 13.0872L23.8617 9.60745L25.85 11.5957L22.3697 15.0754C22.0951 15.3499 22.0951 15.7952 22.3697 16.0698C22.507 16.2071 22.6869 16.2758 22.8669 16.2758C23.0468 16.2758 23.2268 16.2071 23.364 16.0699L26.8444 12.5901L28.8334 14.5791L25.3531 18.0588C25.0785 18.3333 25.0785 18.7785 25.353 19.0532C25.4903 19.1905 25.6703 19.2592 25.8503 19.2592C26.0302 19.2592 26.2101 19.1905 26.3474 19.0532L29.8278 15.5735L31.319 17.0647L24.3589 24.0248ZM25.8501 2.6463C26.1248 2.3718 26.57 2.3718 26.8446 2.6463C27.1191 2.92095 27.1191 3.36616 26.8446 3.64073L24.8561 5.62917C24.7189 5.76642 24.5389 5.83512 24.3589 5.83512C24.179 5.83512 23.9991 5.76642 23.8617 5.62917C23.5871 5.35453 23.5871 4.90931 23.8617 4.63474L25.8501 2.6463ZM30.8216 3.64045C31.0963 3.36595 31.5415 3.36595 31.8161 3.64045C32.0906 3.91509 32.0906 4.3603 31.8161 4.63487L27.8385 8.61245C27.7012 8.7497 27.5212 8.8184 27.3413 8.8184C27.1614 8.8184 26.9814 8.7497 26.8441 8.61245C26.5696 8.33788 26.5696 7.89259 26.8441 7.61802L30.8216 3.64045ZM33.8053 7.61813C33.5307 7.34342 33.0856 7.34349 32.8109 7.61799L29.8276 10.6006C29.5529 10.8752 29.5529 11.3204 29.8275 11.5951C29.9648 11.7324 30.1448 11.8011 30.3248 11.8011C30.5047 11.8011 30.6846 11.7324 30.8219 11.5952L33.8052 8.61256C34.0798 8.33799 34.0798 7.89284 33.8053 7.61813ZM33.8051 12.5899C34.0797 12.3154 34.5249 12.3154 34.7995 12.5899C35.0741 12.8645 35.0741 13.3098 34.7995 13.5843L33.8053 14.5786C33.668 14.7158 33.488 14.7845 33.3081 14.7845C33.1282 14.7845 32.9482 14.7158 32.8109 14.5786C32.5363 14.3039 32.5363 13.8587 32.8109 13.5841L33.8051 12.5899Z" fill="#1C57C9"/>
</svg>
