<svg xmlns="http://www.w3.org/2000/svg" fill="none" viewBox="0 0 1140 590"><path fill="#FFEEF2" fill-rule="evenodd" d="M5.96 6.045c88.505 7.668 141.782 11.763 159.833 12.283 27.077.78 145.27-8.407 178.581-8.407 33.311 0 204.989-9.925 239.282-9.925 34.293 0 307.099 9.925 340.606 9.925 22.338 0 94.248-3.308 215.738-9.925-14.68 84.374-22.02 132.654-22.02 144.841 0 18.28 20.95 80.625 22.02 108.116 1.07 27.49-16.45 154.062-16.45 180.984 0 17.948 3.51 67.368 10.53 148.259-234.133-18.098-364.848-27.147-392.149-27.147-40.952 0-232.901 34.162-265.08 34.951-32.179.789-191.36-26.196-232.798-26.196-27.625 0-108.976 8.732-244.053 26.196 7.757-78.861 11.635-127.803 11.635-146.825C11.635 414.642-.477 292.82 0 268.495.477 244.17 17.483 165.55 17.483 144.837c0-13.809-3.84-60.073-11.522-138.792z" clip-rule="evenodd"/></svg>