<svg width="107" height="36" viewBox="0 0 107 36" fill="none" xmlns="http://www.w3.org/2000/svg">
<g clip-path="url(#clip0)">
<path opacity="0.396676" d="M15.5987 29.101C7.58473 29.101 1.08814 22.5865 1.08814 14.5505C1.08814 6.51449 7.58473 0 15.5987 0C23.6126 0 30.1092 6.51449 30.1092 14.5505C30.1092 22.5865 23.6126 29.101 15.5987 29.101Z" fill="#FF6743"/>
<path d="M25.8432 36C23.5896 36 21.7627 34.1868 21.7627 31.95C21.7627 29.7132 23.5896 27.9 25.8432 27.9C28.0968 27.9 29.9237 29.7132 29.9237 31.95C29.9237 34.1868 28.0968 36 25.8432 36Z" fill="#FF6743"/>
<path d="M41.5863 13.5953C41.5863 12.1506 42.6883 11.3575 45.0955 11.3575C47.3286 11.3575 48.6047 12.179 48.6337 14.0202H52.636C52.636 10.3094 49.7648 8.1 45.1535 8.1C40.6292 8.1 37.584 10.3661 37.584 13.6803C37.584 21.4133 48.9237 17.9292 48.9237 22.3764C48.9237 23.8494 47.5606 24.6425 45.1825 24.6425C42.5433 24.6425 41.1802 23.6794 41.1802 21.9232H37.178C37.178 25.7755 40.0492 27.9 44.9795 27.9C49.7068 27.9 52.897 25.7755 52.897 22.3764C52.897 14.3601 41.5863 17.8442 41.5863 13.5953ZM68.0601 24.5292C67.7411 24.6425 67.5961 24.6708 67.3351 24.6708C66.9291 24.6708 66.6681 24.3876 66.6681 23.821V19.3455C66.6681 15.833 64.4639 13.7086 60.3166 13.7086C56.6334 13.7086 54.1392 15.4365 53.9072 18.5807H57.5035C57.6485 17.391 58.6055 16.6545 60.1136 16.6545C61.9118 16.6545 62.8108 17.6176 62.8108 19.0622V19.6854H60.9837C57.0974 19.6854 53.5302 20.6768 53.5302 24.076C53.5302 26.3704 55.2123 27.8717 58.3445 27.8717C61.3607 27.8717 62.5498 26.4837 63.0138 25.6339H63.0428C63.5359 27.1635 64.7249 27.8717 66.262 27.8717C67.0741 27.8717 67.7411 27.7584 68.2922 27.5884L68.0601 24.5292ZM59.4466 25.0391C58.0835 25.0391 57.3875 24.5292 57.3875 23.6227C57.3875 22.4047 58.6345 21.8099 60.7517 21.8099H62.8108V22.688C62.8108 23.7927 61.5347 25.0391 59.4466 25.0391ZM86.2685 13.7086C83.9193 13.7086 82.3822 14.9266 81.6572 16.5979C80.9902 14.87 79.4821 13.7086 77.1909 13.7086C75.2188 13.7086 73.8267 14.5867 73.0146 15.8614L72.8986 13.8502H69.0704V27.73H73.0436V19.9687C73.0436 18.2408 74.1457 17.0794 75.7408 17.0794C77.2199 17.0794 78.09 18.0991 78.09 19.827V27.73H82.0632V19.9687C82.0632 18.2408 83.1653 17.0794 84.7604 17.0794C86.2105 17.0794 87.1096 18.0708 87.1096 19.827V27.73H91.1118V18.9773C91.1118 15.8897 89.4297 13.7086 86.2685 13.7086ZM106.768 24.5292C106.449 24.6425 106.304 24.6708 106.043 24.6708C105.637 24.6708 105.376 24.3876 105.376 23.821V19.3455C105.376 15.833 103.172 13.7086 99.0245 13.7086C95.3413 13.7086 92.8471 15.4365 92.6151 18.5807H96.2113C96.3563 17.391 97.3134 16.6545 98.8215 16.6545C100.62 16.6545 101.519 17.6176 101.519 19.0622V19.6854H99.6915C95.8053 19.6854 92.2381 20.6768 92.2381 24.076C92.2381 26.3704 93.9202 27.8717 97.0524 27.8717C100.069 27.8717 101.258 26.4837 101.722 25.6339H101.751C102.244 27.1635 103.433 27.8717 104.97 27.8717C105.782 27.8717 106.449 27.7584 107 27.5884L106.768 24.5292ZM98.1544 25.0391C96.7914 25.0391 96.0953 24.5292 96.0953 23.6227C96.0953 22.4047 97.3424 21.8099 99.4595 21.8099H101.519V22.688C101.519 23.7927 100.243 25.0391 98.1544 25.0391Z" fill="#111237"/>
</g>
<defs>
<clipPath id="clip0">
<rect width="107" height="36" fill="white"/>
</clipPath>
</defs>
</svg>
