<svg xmlns="http://www.w3.org/2000/svg" fill="none" viewBox="0 0 524 329"><path fill="#fff" fill-rule="evenodd" d="M3.096 3.376c18.179 3.71 31.413 5.71 39.704 6 12.437.436 90.7-6 106-6 15.299 0 103.88-3.37 119.631-3.37 15.751 0 89.045 5.532 104.435 5.532 10.26 0 60.624-1.844 151.094-5.532-6.743 47.046-10.115 73.967-10.115 80.762 0 10.193 9.624 44.957 10.115 60.286.491 15.329-7.555 85.906-7.555 100.918 0 10.008 1.612 37.565 4.834 82.671-79.142-5.323-124.982-7.984-137.522-7.984-18.809 0-77.948 9.831-92.728 10.271-14.78.44-161.28-2.287-180.313-2.287-12.688 0-49.46 1.45-110.318 4.351 3.563-43.974 5.344-71.264 5.344-81.871 0-15.91-5.563-83.839-5.344-97.402.22-13.564 8.03-57.403 8.03-68.953 0-7.7-1.764-33.497-5.292-77.392z" clip-rule="evenodd"/></svg>