<svg xmlns="http://www.w3.org/2000/svg" fill="none" viewBox="0 0 174 104"><path stroke="#002E8C" stroke-linecap="square" stroke-width="3" d="M166.192 30.288c-55.206-1.516-91.247 1.245-108.123 8.284-25.315 10.557-10.714 29.902-4.35 33.956 6.366 4.054 15.856-7.387 7.145-9.845-8.712-2.457-21.505 7.606-28.326 15.003-4.547 4.932-9.511 11.955-14.892 21.069"/><path fill="#002E8C" fill-rule="evenodd" d="M14.415 101.245c.21.653 1.17.942 2.144.647l15.866-4.823c.974-.297 1.592-1.065 1.382-1.718-.211-.654-1.17-.943-2.145-.647L17.56 98.99l-3.05-9.46c-.21-.654-1.17-.944-2.144-.647-.974.295-1.592 1.065-1.382 1.718l3.432 10.643z" clip-rule="evenodd"/></svg>