<svg xmlns="http://www.w3.org/2000/svg" fill="none" viewBox="0 0 526 492"><path fill="#fff" fill-rule="evenodd" d="M523.23 486.95c-18.226-5.548-31.495-8.539-39.808-8.973-12.469-.65-90.937 8.973-106.277 8.973-15.339 0-104.152 5.041-119.944 5.041-15.793 0-89.278-8.273-104.709-8.273-10.286 0-60.783 2.757-151.489 8.273 6.76-70.355 10.141-110.613 10.141-120.775 0-15.243-9.649-67.231-10.14-90.155-.493-22.923 7.573-128.467 7.573-150.917 0-14.966-1.615-56.175-4.846-123.628 79.349 7.959 125.31 11.938 137.882 11.938 18.858 0 78.152-14.702 92.971-15.36 14.818-.657 161.702 3.422 180.784 3.422 12.722 0 49.591-2.17 110.607-6.508-3.572 65.76-5.358 106.572-5.358 122.433 0 23.793 5.578 125.377 5.358 145.66-.22 20.284-8.051 85.843-8.051 103.115 0 11.514 1.769 50.093 5.306 115.734z" clip-rule="evenodd"/></svg>