<svg xmlns="http://www.w3.org/2000/svg" fill="none" viewBox="0 0 524 299"><path fill="#fff" fill-rule="evenodd" d="M3.096 295.931c18.178-3.371 31.413-5.189 39.704-5.453 12.436-.395 90.7 5.453 106 5.453 15.299 0 103.88 3.064 119.631 3.064 15.751 0 89.045-5.028 104.435-5.028 10.26 0 60.624 1.676 151.094 5.028-6.744-42.757-10.115-67.223-10.115-73.398 0-9.264 9.624-40.858 10.115-54.789.491-13.931-7.555-78.073-7.555-91.716 0-9.095 1.612-34.14 4.834-75.132-79.142 4.837-124.983 7.255-137.522 7.255-18.809 0-77.948-8.934-92.728-9.334-14.78-.4-161.28 2.079-180.313 2.079C97.988 3.96 61.216 2.642.358.005 3.921 39.97 5.702 64.771 5.702 74.411c0 14.46-5.563 76.194-5.344 88.521.22 12.327 8.03 52.168 8.03 62.665 0 6.998-1.764 30.442-5.292 70.334z" clip-rule="evenodd"/></svg>