<svg xmlns="http://www.w3.org/2000/svg" fill="none" viewBox="0 0 87 98"><path stroke="#FFC8C8" stroke-linecap="round" stroke-width="3" d="M50.843 52.295c9.864 2.187 13.645 5.418 11.344 9.694-2.262 4.202-4.795.58-2.777-1.727 2.019-2.306 6.581-.758 11.056 4.907 4.802 6.08 9.225 8.508 13.27 7.288"/><path fill="#FFC8C8" stroke="#FFC8C8" d="M41.453 39.797l11.035-6.033c.69-.377.404-1.41-.364-1.436L5.22 26.924c-.653-.089-1.085.742-.648 1.246l22.456 31.846c.372.39 1.14.416 1.292-.112l8.587-14.055 8.102 4.187c.667.378 1.457-.352 1.071-1.032l-4.627-9.207zm-1.232-1.109l-27.929-9.39 26.991 2.175 10.248 2.125-4.24 3.175-5.07 1.915zM7.726 30.011c3.34 1.596 6.91 3.424 10.712 5.482 3.801 2.06 9.513 5.259 17.135 9.6l-3.45 6.828-4.54 6.157L17.8 45.517 7.726 30.01zm28.992 14.907L6.758 28.122l22.564 8.014 10.495 3.962 2.477 3.338 1.299 4.106-6.875-2.624z"/></svg>