<svg xmlns="http://www.w3.org/2000/svg" fill="none" viewBox="0 0 38 37"><path fill="#F5A9AB" d="M3.177 24.218c.618-.108 1.226-.255 1.84-.375 2.718-.528 5.464-.678 8.176-.551.132.123.24.18.27.26.53 1.366 1.042 2.74 1.578 4.104.293.748.622 1.486.934 2.228.567 1.357 1.184 2.705 1.407 4.147.166 1.07 1.072 1.78 1.516 2.71.035.074.16.116.248.163.388.207.895.067 1.046-.298.054-.129.063-.273.106-.406.895-2.786 1.881-5.542 3.203-8.195.298-.597.595-1.193.857-1.803.39-.905.59-1.059 1.735-1.074 1.943-.024 3.88-.075 5.775-.533.754-.182 1.535-.292 2.311-.391.462-.058.937-.046 1.405-.04.362.004.723.046 1.145.077.138-.195.214-.267.244-.351.404-1.13.235-1.571-.842-2.25-.3-.19-.584-.399-.883-.587-2.097-1.319-4.037-2.831-6.282-3.968-1.088-.55-1.163-.906-.744-1.964.732-1.842 1.44-3.694 2.156-5.54.05-.134.107-.265.147-.4.602-1.982 1.211-3.962 1.792-5.949.103-.35.178-.746.102-1.091-.185-.824-.916-1.234-1.744-1.456-.654-.174-.866.379-1.206.717-.489.485-1.029.928-1.523 1.408-.493.476-.883 1.062-1.452 1.442-.647.434-1.126.962-1.602 1.52-.317.37-.622.78-1.035 1.047-.738.473-1.29 1.084-1.863 1.687-.17.178-.342.357-.534.513-.56.456-1.21.519-1.901.295a3.623 3.623 0 0 1-.701-.318c-2.236-1.303-4.505-2.565-6.56-4.098-.885-.659-1.738-1.351-2.617-2.017-.44-.331-.844-.344-1.294-.083-.345.2-.421.453-.187.996.26.608.6 1.188.868 1.793.557 1.26 1.11 2.524 1.625 3.796.552 1.364.976 2.76 1.192 4.203.066.44.036.835-.354 1.16-1.189.989-2.326 2.03-3.575 2.953-1.08.8-2.282 1.47-3.439 2.186-.984.609-1.937 1.258-3.017 1.742-.635.285-.814.818-.568 1.422.315.773 1.358 1.326 2.245 1.17z"/></svg>