<svg xmlns="http://www.w3.org/2000/svg" fill="none" viewBox="0 0 38 38"><g clip-path="url(#clip0)"><path fill="#F5A9AB" d="M10.097 37.278c.411-.473.791-.97 1.194-1.449 1.78-2.12 3.819-3.966 6.007-5.574.18.013.299-.01.373.032 1.272.729 2.534 1.474 3.809 2.197.699.397 1.419.763 2.128 1.144 1.295.697 2.623 1.357 3.703 2.337.803.727 1.954.708 2.884 1.153.073.034.197-.011.296-.03.431-.084.737-.512.625-.89-.04-.134-.123-.252-.174-.383-1.058-2.728-2.026-5.49-2.668-8.384-.144-.651-.288-1.302-.468-1.94-.266-.95-.208-1.194.672-1.927 1.495-1.242 2.968-2.5 4.153-4.049.47-.616 1.01-1.192 1.55-1.758.322-.336.699-.625 1.066-.916.284-.224.591-.419.939-.66-.016-.239-.002-.342-.032-.426-.397-1.133-.805-1.37-2.07-1.219-.353.042-.705.058-1.056.1-2.46.295-4.919.34-7.379.87-1.191.257-1.474.027-1.813-1.059-.591-1.892-1.207-3.776-1.812-5.663-.045-.135-.084-.272-.137-.403-.78-1.919-1.552-3.84-2.35-5.75-.142-.338-.332-.692-.61-.912-.661-.524-1.487-.383-2.27-.034-.618.276-.435.839-.487 1.316-.074.685-.215 1.369-.297 2.053-.083.68-.018 1.38-.22 2.034-.23.745-.271 1.456-.29 2.189-.012.487.009.999-.145 1.465-.275.832-.32 1.654-.386 2.484-.02.245-.041.492-.092.735-.148.706-.614 1.165-1.292 1.425a3.62 3.62 0 0 1-.745.194c-2.557.395-5.115.842-7.677.944-1.102.045-2.2.044-3.303.08-.55.018-.872.263-1.058.75-.142.373-.042.617.481.891.586.309 1.214.545 1.804.847 1.226.63 2.45 1.263 3.651 1.928 1.288.713 2.495 1.53 3.572 2.515.328.3.553.627.455 1.125-.302 1.517-.53 3.041-.92 4.544-.337 1.302-.848 2.58-1.297 3.864-.381 1.092-.713 2.197-1.248 3.252-.314.621-.118 1.148.453 1.462.73.403 1.89.176 2.48-.504z"/></g><defs><clipPath id="clip0"><path fill="#fff" d="M0 0h38v38H0z"/></clipPath></defs></svg>